<svg viewBox="0 0 1000 1000" xmlns="http://www.w3.org/2000/svg"><defs><radialGradient id="c" r="100%" cx="62%" cy="48%"><stop offset="0%" stop-color="#3EECAC"/><stop offset="100%" stop-color="#EE74E1"/></radialGradient><clipPath id="b"><path fill="currentColor" d="M782.5 611q23.5 111-68 189T491 906.5q-132 28.5-166-113T173.5 576Q56 500 93 365.5t169.5-161Q395 178 485 224t227 34.5q137-11.5 92 115T782.5 611Z"/></clipPath><filter id="a" x="-50vw" y="-50vh" width="100vw" height="100vh"><feFlood flood-color="#fff" result="neutral-gray"/><feTurbulence type="fractalNoise" baseFrequency="2.5" numOctaves="100" stitchTiles="stitch" result="noise"/><feColorMatrix in="noise" type="saturate" values="0" result="destaturatedNoise"/><feComponentTransfer in="desaturatedNoise" result="theNoise"><feFuncA type="table" tableValues="0 0 0.45 0"/></feComponentTransfer><feBlend in="SourceGraphic" in2="theNoise" mode="soft-light" result="noisy-image"/></filter></defs><g filter="url(#a)" clip-path="url(#b)"><path fill="url(#c)" d="M782.5 611q23.5 111-68 189T491 906.5q-132 28.5-166-113T173.5 576Q56 500 93 365.5t169.5-161Q395 178 485 224t227 34.5q137-11.5 92 115T782.5 611Z"/></g></svg>