<svg width="27" height="5" viewBox="0 0 27 5" fill="none" xmlns="http://www.w3.org/2000/svg">
<path d="M16.375 2.5C16.375 2.99445 16.2284 3.4778 15.9537 3.88893C15.679 4.30005 15.2885 4.62048 14.8317 4.8097C14.3749 4.99892 13.8722 5.04843 13.3873 4.95196C12.9023 4.8555 12.4569 4.6174 12.1072 4.26777C11.7576 3.91814 11.5195 3.47268 11.423 2.98773C11.3266 2.50277 11.3761 2.00011 11.5653 1.54329C11.7545 1.08648 12.075 0.69603 12.4861 0.421326C12.8972 0.146623 13.3805 0 13.875 0C14.538 0 15.1739 0.263393 15.6428 0.732234C16.1116 1.20107 16.375 1.83696 16.375 2.5ZM3.25 0C2.75555 0 2.2722 0.146623 1.86108 0.421326C1.44995 0.69603 1.12952 1.08648 0.940302 1.54329C0.751083 2.00011 0.701575 2.50277 0.798038 2.98773C0.894501 3.47268 1.1326 3.91814 1.48223 4.26777C1.83187 4.6174 2.27732 4.8555 2.76228 4.95196C3.24723 5.04843 3.74989 4.99892 4.20671 4.8097C4.66353 4.62048 5.05397 4.30005 5.32868 3.88893C5.60338 3.4778 5.75 2.99445 5.75 2.5C5.75 1.83696 5.48661 1.20107 5.01777 0.732234C4.54893 0.263393 3.91304 0 3.25 0ZM24.5 0C24.0056 0 23.5222 0.146623 23.1111 0.421326C22.7 0.69603 22.3795 1.08648 22.1903 1.54329C22.0011 2.00011 21.9516 2.50277 22.048 2.98773C22.1445 3.47268 22.3826 3.91814 22.7322 4.26777C23.0819 4.6174 23.5273 4.8555 24.0123 4.95196C24.4972 5.04843 24.9999 4.99892 25.4567 4.8097C25.9135 4.62048 26.304 4.30005 26.5787 3.88893C26.8534 3.4778 27 2.99445 27 2.5C27 1.83696 26.7366 1.20107 26.2678 0.732234C25.7989 0.263393 25.163 0 24.5 0Z" fill="#545454"/>
</svg>
